# xmcd CD database file
#
# Track frame offsets:
#	150
#	25869
#	50410
#	61675
#	99337
#	132645
#	158767
#	180967
#	201927
#	229347
#	246010
#	265057
#	282997
#	293362
#	307057
#	325790
#
# Disc length: 4541 seconds
#
# Revision: 4
# Processed by: cddbd v1.5.2PL0 Copyright (c) Steve Scherf et al.
# Submitted via: CDex 1.51
#
DISCID=da11bb10
DTITLE=Jeff Beck - Beckology Volume 3
DYEAR=1991
DGENRE=Rock
TTITLE0=Cause We've Ended As Lovers
TTITLE1=Goodbye Pork Pie Hat
TTITLE2=Love Is Green
TTITLE3=Diamond Dust
TTITLE4=Freeway Jam (Live)
TTITLE5=The Pump
TTITLE6=People Get Ready
TTITLE7=Escape
TTITLE8=Gets Us All In The End
TTITLE9=Back On The Street
TTITLE10=Wild Thing
TTITLE11=The Train Kept A-Rollin'
TTITLE12=Sleep Walk
TTITLE13=The Stumble
TTITLE14=Big Block
TTITLE15=Where Were You
EXTD=
EXTT0=
EXTT1=
EXTT2=
EXTT3=
EXTT4=
EXTT5=
EXTT6=
EXTT7=
EXTT8=
EXTT9=
EXTT10=
EXTT11=
EXTT12=
EXTT13=
EXTT14=
EXTT15=
PLAYORDER=
